<svg width="350" height="268.15123775992004" viewBox="0 -20 350 268.15123775992004">
    <g id="SvgjsG1261" featurekey="nameFeature-0" transform="matrix(1.5921066559312005,0,0,1.5921066559312005,-6.6855745137371745,183.8761081794882)" fill="#222831">
        <path d="M4.1992 40 l0 -27.617 l9.1016 0 c8.4961 0 12.813 5.7031 12.813 13.789 c0 8.1445 -4.3164 13.828 -12.813 13.828 l-9.1016 0 z M8.0859 36.4844 l5.0586 0 c6.0352 0 8.9063 -4.0039 8.9063 -10.313 c0 -6.2695 -2.8711 -10.293 -8.9063 -10.293 l-5.0586 0 l0 20.605 z M56.3424609375 40 l-2.3047 -6.4453 l-12.344 0 l-2.3047 6.4453 l-4.043 0 l10.176 -27.617 l4.6875 0 l10.176 27.617 l-4.043 0 z M42.9052609375 30.1562 l9.9219 0 l-4.9609 -13.926 z M86.338328125 40 l-7.1484 -12.422 l-3.8672 0 l0 12.422 l-3.8867 0 l0 -27.617 l9.2969 0 c5.7813 0 8.418 3.5352 8.418 7.8711 c0 3.8477 -2.2656 6.5234 -6.0547 7.168 l7.793 12.578 l-4.5508 0 z M75.322228125 15.742 l0 8.8672 l4.8828 0 c3.5938 0 5.2148 -1.7969 5.2148 -4.4141 c0 -2.5781 -1.6211 -4.4531 -5.2148 -4.4531 l-4.8828 0 z M110.9818828125 40.37109 c-5.7617 0 -9.9805 -2.7539 -10.918 -7.4414 l3.9648 -0.9375 c0.625 3.2227 3.418 5.0781 7.0898 5.0781 c2.9492 0 5.7813 -1.2109 5.7227 -4.5313 c-0.039063 -3.2813 -3.5938 -4.1797 -7.3633 -5.2148 c-4.2773 -1.1719 -8.5547 -2.5195 -8.5547 -7.5977 c0 -5.1367 4.2383 -7.7148 9.2578 -7.7148 c4.8633 0 9.2383 2.0508 10.273 6.7969 l-3.7695 0.95703 c-0.68359 -3.0664 -3.2422 -4.4336 -6.3281 -4.4336 c-2.7734 0 -5.5273 1.2109 -5.5273 4.3555 c0 2.8516 3.0859 3.6914 6.582 4.6289 c4.3945 1.1914 9.4336 2.5586 9.4336 8.1055 c0 5.5859 -4.6875 7.9492 -9.8633 7.9492 z M150.50759375 12.383 l3.8867 0 l0 27.617 l-3.8867 0 l0 -12.109 l-13.574 0 l0 12.109 l-3.9258 0 l0 -27.617 l3.9258 0 l0 12.051 l13.574 0 l0 -12.051 z M186.4596484375 40 l-2.3047 -6.4453 l-12.344 0 l-2.3047 6.4453 l-4.043 0 l10.176 -27.617 l4.6875 0 l10.176 27.617 l-4.043 0 z M173.0224484375 30.1562 l9.9219 0 l-4.9609 -13.926 z M220.166515625 12.383 l3.8672 0 l0 27.617 l-4.1992 0 l-14.434 -21.914 l0 21.914 l-3.8477 0 l0 -27.617 l4.1602 0 l14.453 21.816 l0 -21.816 z">
        </path>
    </g>
</svg>